<?xml version="1.0" encoding="UTF-8"?>
<svg width="600px" height="380px" viewBox="0 0 600 380" version="1.1" xmlns="http://www.w3.org/2000/svg" xmlns:xlink="http://www.w3.org/1999/xlink">
    <!-- Generator: Sketch 39.1 (31720) - http://www.bohemiancoding.com/sketch -->
    <title>3</title>
    <desc>Created with Sketch.</desc>
    <defs></defs>
    <g id="Page-1" stroke="none" stroke-width="1" fill="none" fill-rule="evenodd">
        <g id="3">
            <g id="Dev-commit" transform="translate(446.000000, 69.000000)" stroke="#A46834" stroke-width="3" fill="#F6A623">
                <circle id="Oval" cx="12.5" cy="12.5" r="12.5"></circle>
            </g>
            <g id="Dev-commit" transform="translate(446.000000, 126.000000)" stroke="#A46834" stroke-width="3" fill="#F6A623">
                <circle id="Oval" cx="12.5" cy="12.5" r="12.5"></circle>
            </g>
            <g id="Dev-commit" transform="translate(446.000000, 183.000000)" stroke="#A46834" stroke-width="3" fill="#F6A623">
                <circle id="Oval" cx="12.5" cy="12.5" r="12.5"></circle>
            </g>
            <g id="Dev-commit" transform="translate(446.000000, 240.000000)" stroke="#A46834" stroke-width="3" fill="#F6A623">
                <circle id="Oval" cx="12.5" cy="12.5" r="12.5"></circle>
            </g>
            <g id="Dev-pipe" transform="translate(457.000000, 99.000000)" stroke="#E19210" stroke-width="3" stroke-linecap="square">
                <path d="M1.5,0.5 L1.5,21.5" id="Line"></path>
            </g>
            <g id="Dev-pipe" transform="translate(457.000000, 156.000000)" stroke="#E19210" stroke-width="3" stroke-linecap="square">
                <path d="M1.5,0.5 L1.5,21.5" id="Line"></path>
            </g>
            <g id="Dev-pipe" transform="translate(457.000000, 213.000000)" stroke="#E19210" stroke-width="3" stroke-linecap="square">
                <path d="M1.5,0.5 L1.5,21.5" id="Line"></path>
            </g>
            <g id="Dev-pipe" transform="translate(457.000000, 270.000000)" stroke="#E19210" stroke-width="3" stroke-linecap="square">
                <path d="M1.5,0.5 L1.5,21.5" id="Line"></path>
            </g>
            <path d="M330.5,79.5 L330.5,178.5" id="Line" stroke-opacity="0.583644701" stroke="#77A9E2" stroke-linecap="square" stroke-dasharray="1,6,1,1"></path>
            <text id="Dev" font-family="Lato-Regular, Lato" font-size="18" font-weight="normal" fill="#8F6932">
                <tspan x="442" y="48">Dev</tspan>
            </text>
            <text id="Release-Candidate" font-family="Lato-Regular, Lato" font-size="18" font-weight="normal" fill="#4D6797">
                <tspan x="300.404" y="37">Release </tspan>
                <tspan x="290.3825" y="59">Candidate</tspan>
            </text>
            <g id="Branch" transform="translate(363.000000, 191.000000)">
                <path d="M11,5 L61,5" id="Line" stroke="#4A4A4A" stroke-width="3" stroke-linecap="square"></path>
                <polygon id="Triangle" fill="#4A4A4A" fill-rule="evenodd" transform="translate(5.000000, 5.000000) rotate(-90.000000) translate(-5.000000, -5.000000) " points="5 0 10 10 0 10"></polygon>
            </g>
            <g id="Release-commit" transform="translate(318.000000, 183.000000)" stroke="#4F7EB3" stroke-width="3" fill="#77A9E2">
                <circle id="Oval" cx="12.5" cy="12.5" r="12.5"></circle>
            </g>
            <text id="rc0.1" font-family="Lato-Regular, Lato" font-size="16" font-weight="normal" fill="#4A4A4A">
                <tspan x="378" y="187">rc0.1</tspan>
            </text>
            <g id="Release-pipe" transform="translate(329.000000, 213.000000)" stroke="#7999D2" stroke-width="3" stroke-linecap="square">
                <path d="M1.5,0.5 L1.5,21.5" id="Line"></path>
            </g>
            <g id="Release-commit" transform="translate(318.000000, 240.000000)" stroke="#4F7EB3" stroke-width="3" fill="#77A9E2">
                <circle id="Oval" cx="12.5" cy="12.5" r="12.5"></circle>
            </g>
            <path d="M348.5,252.5 L378.281526,252.5 C386.56996,252.5 393.289062,259.215907 393.289062,267.503571 L393.289062,294.459319 C393.289062,302.745563 399.999351,309.462891 408.283387,309.462891 L440.473633,309.462891" id="Line" stroke="#8296D2" stroke-width="3" stroke-linecap="square"></path>
            <g id="Dev-commit" transform="translate(446.000000, 297.000000)" stroke-width="3">
                <circle id="Oval" stroke="#A46834" fill="#F6A623" cx="12.5" cy="12.5" r="12.5"></circle>
                <path d="M12.5,25 C12.5,19.3046875 12.5,7.34277344 12.5,0 C5.59644063,0 -3.55271368e-15,5.59644063 -3.55271368e-15,12.5 C-3.55271368e-15,19.4035594 5.59644063,25 12.5,25 Z" id="Oval" stroke="#4F7EB3" fill="#77A9E2"></path>
            </g>
        </g>
    </g>
</svg>